<svg xmlns="http://www.w3.org/2000/svg" viewBox="0 0 510.82 233.01"><title>logo-viotrans</title><path d="M253.68,137.6c-8.91,12-13.72,20.75-19.4,31.13A327.32,327.32,0,0,1,262,141.18,51.63,51.63,0,0,0,253.68,137.6Z" style="fill:#ffd800"/><path d="M258,139.25a204.08,204.08,0,0,0-23.49,29.15A379,379,0,0,1,262,141.18C260.57,140.42,259.08,139.68,258,139.25Z" style="fill:#ffba00"/><path d="M456.54,36.6c-1.25-3.17-5.39-2.13-8.82-6.75-3.28-4.42-.78-7.1-3.26-11.78-4.9-9.25-20.83-10.38-23-10.53-5.88-.42-6.43.93-10.91-.19C402,5.22,398.39-1.11,396.3.17c-1.24.76-2.46,3.68.69,15.3a14.38,14.38,0,0,1-.44,5.71c-1.54-1.49-1.7-1.53-5.36-4.26-5.66-4.23-11.91,1.24-32.34,5.18-7.94,1.53-15.6,4.6-23.65,5.42-2.05.21-7.07.64-8.51,3.71-.79,1.68-.15,3.37.07,4.34,1.65,7.47-12.33,17.73-19.1,23-6.43,5-18.36,16.45-28.32,26.36,7.66-1.7,15.23-3,21.33-4.07a288.29,288.29,0,0,0-27.08,26.1c-1.53,1.67-2.54,3.45-7.73,9.81A75.12,75.12,0,0,1,276.07,122c1.07-.9,1.76-1.49,2.19-1.84,10.38-8.51,17.12-13.94,26.9-19.26,21.47-11.66,60.15-24.54,73.41-25.11a64.21,64.21,0,0,0-10.92-4.1c-12.9-3.53-23-1.87-23.11-2.52-.08-1,22.35-.15,44.54-9.35,7.72-3.21,5.1-2.1,12.38-6.05,12.21-6.63,16.87-6.38,18.46-6.12s2.65.5,2.65.5c.78.18.94.25,1.58.38s1.2.2,2.45.32c3.49.34,3.17.93,4.94,2.13,2.7,1.83,2.81,2.89,5,4C441.67,57.43,459.23,43.35,456.54,36.6Zm-178,83.32ZM439.39,27.07c-.15,0-.26-.48-.83-.77a1.77,1.77,0,0,0-1.23-.11,7,7,0,0,1-1.43.08,3,3,0,0,1-2.14-.82,4,4,0,0,1-.65-1.23c-.18-.47-.12-.53-.27-.75-.31-.43-.68-.42-1.06-.88a2.06,2.06,0,0,1-.32-.59,5.52,5.52,0,0,0,2.72.88c1.09,0,1.52-.32,2.51,0a2.55,2.55,0,0,1,1.69,1.21c.16.4.07.73.4,1.18.22.3.36.29.53.58C439.62,26.35,439.54,27,439.39,27.07Z" style="fill:#ffd800"/><path d="M355.53,19.44c-6.45,0-18.22-1.06-32.58-.09-25,1.69-28.84,2-66.72-9.31-28.61-8.58-59,14.31-81.49,24.4C168.35,37.3,162.86,40,154,42.2c-10.73,2.63-30.54,2.17-52.18-1.37-7.2-1.18-30-13.08-37.25-17.72A7.44,7.44,0,0,0,54.2,28c-.76,3,.85,5.73,1.68,7.08,5.5,8.88,21.5,14.32,22.47,14.64,17.25,5.71,25.87,8.57,35.53,9.63,32.93,3.59,62-7.86,74-13.25-.44,3.79-1.46,10.88-1.75,16.11,4.11,1,4.68,1,6.71,1.47,6.85,1.44,19,4.1,27.75,10.69,3,2.23,10.32,6.38,11,12.32,1.64,13.63-2.25,18-8.48,30.7,7,2.32,9.26,3.2,12.45,4.2a250.37,250.37,0,0,1,65.94,31.94c-4.7-7.7-6.57-12.4-16.72-20.9-17.59-14.72-32.87-15.42-33.34-23.08-.34-5.6,7.81-6.08,14.16-16.58,7.12-11.76,6.54-27.12,2-37.9-5.81-13.87-11.28-16.37-17-21,3.95.69,11.87,3,19,12.42S277,66.25,276.89,71c0,0-2.44,12.78-2.42,12.77s15.19-16.07,15.22-16.08c3.11-3.21,6.45-6.45,10-9.76,8.09-7.57,11.29-11.12,18-15.23a5.48,5.48,0,0,0,3.13-2.91c.67-1.93-.68-3.35-.85-6.09-.16-2.45.57-5.89,1.52-7.23C323.94,23,327,23.27,335.63,22,342.36,21,347.88,21.19,355.53,19.44Z"/><path d="M171.58,52.44c4.41-1.83,6.73-4,13.82-8.18a148.2,148.2,0,0,0,20.14-14.11c-2.21,5.72-4.14,9.73-5.46,12.85-2.59,6.13-3.9,10.41-2.41,12.54,1.18,1.68,4.15,2.13,6.05,2.6C221.54,62.58,232,69.4,233.36,70.78c2.73,2.73,7.15,7.15,8.74,14.08,3.36,14.66-9,27.18-10.46,28.58,2.83,1.17,7.09,2.94,12.29,5.06,9.6,3.91,16.36,6.54,17.6,7,7.43,2.95,22.06,12.72,40,28-2.79-1.53-10.33-7-15.15-9.57-2.05-1.07-15.29-8.2-24.53-12.49-8.51-4-20.89-8.13-38.71-14.08.84-1.41,1.67-3.66,3-6.22,3-6,5.18-9.89,5.38-15.07a25.1,25.1,0,0,0-2.08-12.77c-.36-.83-1.53-3.71-8.29-8.18a73.39,73.39,0,0,0-18.58-9c-4-1.32-8.23-1.9-16.39-4.06.45-5.36,1.06-10.44,1.59-15.65C175.15,51.3,175.06,51.6,171.58,52.44Z" style="fill:#121112"/><path d="M409.06,50.06c-1.62.6-18.89,5.47-35.64,9.71-10.74,2.73-35.6,6.65-58.79,10.23,20.77,3.77,31.72,2.68,43.71,5.37-4.1.53-3.62,1.08-10.36,2.42-5.83,1.44-15.49,3.35-45.16,18.94-6.88,3.61-26,18.16-31.09,22.79,1.17.61,2.7,1.5,4.34,2.47,6.79-5.69,23.39-18.86,33.49-23.33,31.5-13.92,45.07-18.78,69.16-23-17.21-7.8-28.54-6.83-33.68-6.6,6.17-.87,22.69-1.89,34.31-5.84C390.67,60.22,402.24,53.72,409.06,50.06Z" style="fill:#ffba00"/><path d="M263.48,40A36.46,36.46,0,0,1,275.63,51.4c5.18,7.53,6.46,14.72,6.43,18.1a73.52,73.52,0,0,1,18.8-17.86,75.24,75.24,0,0,1,14.6-7.5c-1.34,1-3.43,2.5-5.88,4.54a101.88,101.88,0,0,0-8.06,7.53c-4.7,4.84-14.32,14.59-27,27.57.24-1.47.55-2.94,1-5.27a52.46,52.46,0,0,0,1.08-14.37C275.47,54.55,269.26,44.77,263.48,40Z" style="fill:#121112"/><path d="M91.28,170.94l-1.57,3.48L68.8,220.84,63.45,233H60.6l-15-33.52L30.54,233H27.66L1.57,174.42,0,170.94H14.46l.66,1.45,14.13,31.38,9.62-21.36,4.51-10,.67-1.45h3.2l.65,1.45,4.51,10L62,203.77l14.13-31.38.66-1.45Z"/><path d="M170.79,170.93v13.18H115.32V170.93Zm-42.28,48.9h42.28V233H115.32V193.22l13.19.09h36.75v13.18H128.51Z"/><path d="M254.88,170.48V233H241.69V199.44l-7,7-2.69,2.7-.73.72-2.41,2.41L227.11,214l-8.87-8.88L212.15,199,199,185.86V170.48h3.28L214.79,183l12.33,12.33L252,170.48ZM199,198.85,212.15,212v21H199Z"/><path d="M341.94,202.08A30.94,30.94,0,1,1,311,171.14,31,31,0,0,1,341.94,202.08Zm-30.94-18a18,18,0,1,0,18,18A18.05,18.05,0,0,0,311,184.05Z"/><path d="M388.24,196.05l-8.31,14.86-20.35-36.75-1.79-3.24h16.54l.47.84Zm40.94-25.13-1.79,3.24-32,58.85h-3.55l-6.65-12.63,8.31-14.86h0l1.55-2.8,2.73-4.93,14.41-26,.46-.84Z"/><path d="M510.82,170.93v13.18H455.35V170.93Zm-42.28,48.9h42.28V233H455.35V193.22l13.19.09h36.75v13.18H468.54Z"/></svg>